M48
;Layer_Color=9474304
;FILE_FORMAT=4:4
METRIC,LZ
;TYPE=PLATED
T1F00S00C0.8500
T2F00S00C0.9000
T3F00S00C1.2000
T4F00S00C1.7000
%
T01
X00325Y000492
X00395Y00035
Y00085
X00265Y001158
X00235
X00205
X00175
Y000142
X00205
X00235
X00265
X0021Y001642
X0018
X0015
X0012
Y002658
X0015
X0018
X0021
X00325Y001508
T02
X0014Y000373
Y0005
Y000627
Y001
Y001127
Y001254
X00245Y002123
Y00225
Y002377
X00285Y0026
X003104
X00345
X003704
T03
X00065Y0017
X0039
T04
X000396Y001446
X000904
Y001954
X000396
X003646
Y001446
X004154
Y001954
M30
