G04*
G04 #@! TF.GenerationSoftware,Altium Limited,Altium Designer,23.1.1 (15)*
G04*
G04 Layer_Physical_Order=1*
G04 Layer_Color=255*
%FSLAX44Y44*%
%MOMM*%
G71*
G04*
G04 #@! TF.SameCoordinates,0DFFAB6A-596F-4881-A06D-93F658BA65A8*
G04*
G04*
G04 #@! TF.FilePolarity,Positive*
G04*
G01*
G75*
%ADD12C,0.2540*%
%ADD13R,1.3000X0.9000*%
%ADD24C,1.0000*%
%ADD25C,2.0000*%
%ADD26C,2.8000*%
%ADD27C,1.4000*%
%ADD28R,1.2750X1.2750*%
%ADD29C,1.2750*%
%ADD30O,2.0000X1.0000*%
%ADD31O,2.0000X1.0000*%
%ADD32R,1.5000X1.5000*%
%ADD33C,1.5000*%
D12*
X88622Y55000D02*
X100000D01*
X298230Y171770D02*
X388230D01*
X295000Y175000D02*
X298230Y171770D01*
X388230D02*
X390000Y170000D01*
X250000Y237700D02*
X271043Y216657D01*
X245000Y237700D02*
X250000D01*
X293000Y194000D02*
X295000D01*
X271043Y215957D02*
X293000Y194000D01*
X271043Y215957D02*
Y216657D01*
X100000Y36000D02*
X110362D01*
X231520Y237700D02*
X245000D01*
X221360D02*
X231520D01*
X180000Y186180D02*
X231520Y237700D01*
X180000Y164200D02*
Y186180D01*
X150000Y135400D02*
Y164200D01*
X140000Y125400D02*
X150000Y135400D01*
X245000Y125800D02*
Y212300D01*
X235000Y115800D02*
X245000Y125800D01*
X205000Y51040D02*
Y115800D01*
X191260Y37300D02*
X205000Y51040D01*
X140000Y37300D02*
X191260D01*
X210000Y249060D02*
Y265800D01*
Y249060D02*
X221360Y237700D01*
X150000Y164200D02*
X161052Y153148D01*
X220852D01*
X231012Y163308D01*
Y221952D01*
X234060Y225000D01*
X245000D01*
X129920Y112700D02*
X140000D01*
X120000Y122620D02*
X129920Y112700D01*
X120000Y122620D02*
Y164200D01*
X124362Y50000D02*
X140000D01*
X110362Y36000D02*
X124362Y50000D01*
X65000Y78622D02*
X88622Y55000D01*
X65000Y78622D02*
Y170000D01*
X140000Y62700D02*
Y100000D01*
D13*
X295000Y194000D02*
D03*
Y175000D02*
D03*
X100000Y35500D02*
D03*
Y54500D02*
D03*
D24*
X383856Y103855D02*
X405117D01*
X362355Y65992D02*
Y82355D01*
X383856Y103855D01*
X310400Y260000D02*
X345000D01*
X235000Y14200D02*
X265000D01*
X205000D02*
X235000D01*
X175000D02*
X205000D01*
X390000Y220462D02*
X395858Y214604D01*
X404142D02*
X406478Y216940D01*
X424322D01*
X436940Y204322D01*
X405117Y103855D02*
X436940Y135678D01*
Y204322D01*
X310563Y14200D02*
X362355Y65992D01*
X265000Y14200D02*
X310563D01*
X390000Y220462D02*
Y240400D01*
X395858Y214604D02*
X404142D01*
X370400Y260000D02*
X390000Y240400D01*
D25*
X65000Y170000D02*
D03*
X390000D02*
D03*
D26*
X90400Y144600D02*
D03*
Y195400D02*
D03*
X39600D02*
D03*
Y144600D02*
D03*
X364600Y195400D02*
D03*
Y144600D02*
D03*
X415400D02*
D03*
Y195400D02*
D03*
D27*
X120000Y265800D02*
D03*
Y164200D02*
D03*
X150000D02*
D03*
Y265800D02*
D03*
X180000Y164200D02*
D03*
Y265800D02*
D03*
X210000Y164200D02*
D03*
Y265800D02*
D03*
X175000Y14200D02*
D03*
Y115800D02*
D03*
X235000Y14200D02*
D03*
Y115800D02*
D03*
X265000Y14200D02*
D03*
Y115800D02*
D03*
X325000Y150800D02*
D03*
Y49200D02*
D03*
X205000Y14200D02*
D03*
Y115800D02*
D03*
D28*
X395000Y35000D02*
D03*
D29*
Y85000D02*
D03*
D30*
X140000Y62700D02*
D03*
Y37300D02*
D03*
Y125400D02*
D03*
Y100000D02*
D03*
X245000Y212300D02*
D03*
Y237700D02*
D03*
D31*
X140000Y50000D02*
D03*
Y112700D02*
D03*
X245000Y225000D02*
D03*
D32*
X310400Y260000D02*
D03*
X370400D02*
D03*
D33*
X285000D02*
D03*
X345000D02*
D03*
M02*
