G04*
G04 #@! TF.GenerationSoftware,Altium Limited,Altium Designer,23.1.1 (15)*
G04*
G04 Layer_Color=65535*
%FSLAX44Y44*%
%MOMM*%
G71*
G04*
G04 #@! TF.SameCoordinates,0DFFAB6A-596F-4881-A06D-93F658BA65A8*
G04*
G04*
G04 #@! TF.FilePolarity,Positive*
G04*
G01*
G75*
%ADD10C,0.2000*%
%ADD11C,0.2500*%
%ADD12C,0.2540*%
D10*
X445000Y60000D02*
G03*
X445000Y60000I-50000J0D01*
G01*
X155000Y69800D02*
G03*
X155000Y30200I-15000J-19800D01*
G01*
Y132500D02*
G03*
X155000Y92900I-15000J-19800D01*
G01*
X230000Y205200D02*
G03*
X230000Y244800I15000J19800D01*
G01*
X0Y147500D02*
X21600D01*
X0Y192500D02*
X21600D01*
X0Y147500D02*
Y192500D01*
X57600Y140000D02*
X72400D01*
X57600Y200000D02*
X72400D01*
X95000Y162600D02*
Y177400D01*
X35000Y162600D02*
Y177400D01*
X284840Y202280D02*
X305160D01*
Y166720D02*
Y202280D01*
X284840Y166720D02*
Y202280D01*
Y166720D02*
X305160D01*
X120000Y245480D02*
Y255640D01*
Y174360D02*
Y184520D01*
X130160D02*
Y245480D01*
X109840D02*
X130160D01*
X109840Y184520D02*
Y245480D01*
Y184520D02*
X130160D01*
X89840Y27220D02*
X110160D01*
X89840D02*
Y62780D01*
X110160Y27220D02*
Y62780D01*
X89840D02*
X110160D01*
X155000Y30200D02*
Y69800D01*
Y92900D02*
Y132500D01*
X230000Y205200D02*
Y244800D01*
X139840Y184520D02*
X160160D01*
X139840D02*
Y245480D01*
X160160D01*
Y184520D02*
Y245480D01*
X150000Y174360D02*
Y184520D01*
Y245480D02*
Y255640D01*
X433400Y192500D02*
X455000D01*
X433400Y147500D02*
X455000D01*
Y192500D01*
X382600Y200000D02*
X397400D01*
X382600Y140000D02*
X397400D01*
X360000Y162600D02*
Y177400D01*
X420000Y162600D02*
Y177400D01*
X272300Y247300D02*
Y272700D01*
X323100D01*
Y247300D02*
Y272700D01*
X272300Y247300D02*
X323100D01*
X169840Y184520D02*
X190160D01*
X169840D02*
Y245480D01*
X190160D01*
Y184520D02*
Y245480D01*
X180000Y174360D02*
Y184520D01*
Y245480D02*
Y255640D01*
X199840Y184520D02*
X220160D01*
X199840D02*
Y245480D01*
X220160D01*
Y184520D02*
Y245480D01*
X210000Y174360D02*
Y184520D01*
Y245480D02*
Y255640D01*
X164840Y34520D02*
X185160D01*
X164840D02*
Y95480D01*
X185160D01*
Y34520D02*
Y95480D01*
X175000Y24360D02*
Y34520D01*
Y95480D02*
Y105640D01*
X224840Y34520D02*
X245160D01*
X224840D02*
Y95480D01*
X245160D01*
Y34520D02*
Y95480D01*
X235000Y24360D02*
Y34520D01*
Y95480D02*
Y105640D01*
X254840Y34520D02*
X275160D01*
X254840D02*
Y95480D01*
X275160D01*
Y34520D02*
Y95480D01*
X265000Y24360D02*
Y34520D01*
Y95480D02*
Y105640D01*
X314840Y130480D02*
X335160D01*
Y69520D02*
Y130480D01*
X314840Y69520D02*
X335160D01*
X314840D02*
Y130480D01*
X325000D02*
Y140640D01*
Y59360D02*
Y69520D01*
X332300Y247300D02*
Y272700D01*
X383100D01*
Y247300D02*
Y272700D01*
X332300Y247300D02*
X383100D01*
X194840Y34520D02*
X215160D01*
X194840D02*
Y95480D01*
X215160D01*
Y34520D02*
Y95480D01*
X205000Y24360D02*
Y34520D01*
Y95480D02*
Y105640D01*
D11*
X154750Y21700D02*
G03*
X154750Y21700I-1250J0D01*
G01*
Y84400D02*
G03*
X154750Y84400I-1250J0D01*
G01*
X232750Y253300D02*
G03*
X232750Y253300I-1250J0D01*
G01*
D12*
X85000Y232617D02*
X79922D01*
X82461D01*
Y219922D01*
X79922Y217383D01*
X77382D01*
X74843Y219922D01*
X90078Y217383D02*
X95157D01*
X92618D01*
Y232617D01*
X90078Y230078D01*
X296541Y223502D02*
X294002Y226041D01*
X288923D01*
X286384Y223502D01*
Y213345D01*
X288923Y210806D01*
X294002D01*
X296541Y213345D01*
X301619Y223502D02*
X304158Y226041D01*
X309237D01*
X311776Y223502D01*
Y220963D01*
X309237Y218424D01*
X306697D01*
X309237D01*
X311776Y215884D01*
Y213345D01*
X309237Y210806D01*
X304158D01*
X301619Y213345D01*
X111378Y281418D02*
Y296653D01*
X118996D01*
X121535Y294114D01*
Y289035D01*
X118996Y286496D01*
X111378D01*
X116456D02*
X121535Y281418D01*
X126613D02*
X131691D01*
X129152D01*
Y296653D01*
X126613Y294114D01*
X322461Y25078D02*
X319922Y27617D01*
X314843D01*
X312304Y25078D01*
Y14922D01*
X314843Y12383D01*
X319922D01*
X322461Y14922D01*
X337696Y12383D02*
X327539D01*
X337696Y22539D01*
Y25078D01*
X335157Y27617D01*
X330078D01*
X327539Y25078D01*
X75000Y59578D02*
X72461Y62118D01*
X67382D01*
X64843Y59578D01*
Y49422D01*
X67382Y46883D01*
X72461D01*
X75000Y49422D01*
X80078Y46883D02*
X85157D01*
X82618D01*
Y62118D01*
X80078Y59578D01*
X107461Y74922D02*
Y85078D01*
X104922Y87618D01*
X99843D01*
X97304Y85078D01*
Y74922D01*
X99843Y72382D01*
X104922D01*
X102382Y77461D02*
X107461Y72382D01*
X104922D02*
X107461Y74922D01*
X122696Y72382D02*
X112539D01*
X122696Y82539D01*
Y85078D01*
X120157Y87618D01*
X115078D01*
X112539Y85078D01*
X120000Y144922D02*
Y155078D01*
X117461Y157618D01*
X112382D01*
X109843Y155078D01*
Y144922D01*
X112382Y142382D01*
X117461D01*
X114922Y147461D02*
X120000Y142382D01*
X117461D02*
X120000Y144922D01*
X125078Y142382D02*
X130157D01*
X127618D01*
Y157618D01*
X125078Y155078D01*
X257461Y184922D02*
Y195078D01*
X254922Y197617D01*
X249843D01*
X247304Y195078D01*
Y184922D01*
X249843Y182383D01*
X254922D01*
X252383Y187461D02*
X257461Y182383D01*
X254922D02*
X257461Y184922D01*
X262539Y195078D02*
X265078Y197617D01*
X270157D01*
X272696Y195078D01*
Y192539D01*
X270157Y190000D01*
X267617D01*
X270157D01*
X272696Y187461D01*
Y184922D01*
X270157Y182383D01*
X265078D01*
X262539Y184922D01*
X141350Y281418D02*
Y296653D01*
X148968D01*
X151507Y294114D01*
Y289035D01*
X148968Y286496D01*
X141350D01*
X146428D02*
X151507Y281418D01*
X166742Y296653D02*
X161663Y294114D01*
X156585Y289035D01*
Y283957D01*
X159124Y281418D01*
X164203D01*
X166742Y283957D01*
Y286496D01*
X164203Y289035D01*
X156585D01*
X362327Y233153D02*
X357248D01*
X359787D01*
Y220457D01*
X357248Y217918D01*
X354709D01*
X352170Y220457D01*
X377562Y217918D02*
X367405D01*
X377562Y228075D01*
Y230614D01*
X375023Y233153D01*
X369944D01*
X367405Y230614D01*
X273938Y281418D02*
Y296653D01*
X281556D01*
X284095Y294114D01*
Y289035D01*
X281556Y286496D01*
X273938D01*
X289173Y281418D02*
X294251D01*
X291712D01*
Y296653D01*
X289173Y294114D01*
X171322Y281418D02*
Y296653D01*
X178939D01*
X181479Y294114D01*
Y289035D01*
X178939Y286496D01*
X171322D01*
X176400D02*
X181479Y281418D01*
X186557Y294114D02*
X189096Y296653D01*
X194175D01*
X196714Y294114D01*
Y291575D01*
X194175Y289035D01*
X196714Y286496D01*
Y283957D01*
X194175Y281418D01*
X189096D01*
X186557Y283957D01*
Y286496D01*
X189096Y289035D01*
X186557Y291575D01*
Y294114D01*
X189096Y289035D02*
X194175D01*
X201294Y281418D02*
Y296653D01*
X208911D01*
X211451Y294114D01*
Y289035D01*
X208911Y286496D01*
X201294D01*
X206372D02*
X211451Y281418D01*
X224147D02*
Y296653D01*
X216529Y289035D01*
X226686D01*
X166496Y131558D02*
Y146793D01*
X174114D01*
X176653Y144254D01*
Y139176D01*
X174114Y136636D01*
X166496D01*
X171574D02*
X176653Y131558D01*
X191888D02*
X181731D01*
X191888Y141715D01*
Y144254D01*
X189349Y146793D01*
X184270D01*
X181731Y144254D01*
X226440Y131558D02*
Y146793D01*
X234058D01*
X236597Y144254D01*
Y139176D01*
X234058Y136636D01*
X226440D01*
X231518D02*
X236597Y131558D01*
X241675Y134097D02*
X244214Y131558D01*
X249293D01*
X251832Y134097D01*
Y144254D01*
X249293Y146793D01*
X244214D01*
X241675Y144254D01*
Y141715D01*
X244214Y139176D01*
X251832D01*
X256412Y131558D02*
Y146793D01*
X264030D01*
X266569Y144254D01*
Y139176D01*
X264030Y136636D01*
X256412D01*
X261490D02*
X266569Y131558D01*
X271647Y144254D02*
X274186Y146793D01*
X279265D01*
X281804Y144254D01*
Y141715D01*
X279265Y139176D01*
X276725D01*
X279265D01*
X281804Y136636D01*
Y134097D01*
X279265Y131558D01*
X274186D01*
X271647Y134097D01*
X316356Y166356D02*
Y181591D01*
X323974D01*
X326513Y179052D01*
Y173974D01*
X323974Y171434D01*
X316356D01*
X321434D02*
X326513Y166356D01*
X331591Y181591D02*
X341748D01*
Y179052D01*
X331591Y168895D01*
Y166356D01*
X333882Y281418D02*
Y296653D01*
X341499D01*
X344039Y294114D01*
Y289035D01*
X341499Y286496D01*
X333882D01*
X359274Y281418D02*
X349117D01*
X359274Y291575D01*
Y294114D01*
X356735Y296653D01*
X351656D01*
X349117Y294114D01*
X196468Y131558D02*
Y146793D01*
X204086D01*
X206625Y144254D01*
Y139176D01*
X204086Y136636D01*
X196468D01*
X201546D02*
X206625Y131558D01*
X221860Y146793D02*
X211703D01*
Y139176D01*
X216781Y141715D01*
X219321D01*
X221860Y139176D01*
Y134097D01*
X219321Y131558D01*
X214242D01*
X211703Y134097D01*
M02*
